<svg width="240" height="240" viewBox="0 0 240 240" fill="none" xmlns="http://www.w3.org/2000/svg">
<circle cx="120" cy="120" r="120" fill="url(#paint0_linear_658_14243)"/>
<path d="M172.726 102.174C164.776 81.23 144.874 66.127 121.339 65.285C120.602 65.2324 119.918 65.2324 119.181 65.2324C118.443 65.2324 117.759 65.2324 117.022 65.285C93.645 66.127 73.8483 81.0195 65.7927 101.806C63.3181 108.226 61.9492 115.172 61.9492 122.487H176.412C176.412 115.278 175.148 108.489 172.726 102.174ZM150.929 103.227C148.981 105.174 146.243 106.384 143.242 106.384H96.6461C90.6965 106.384 85.8 101.49 85.8 95.5437C85.8 92.5441 87.011 89.8603 89.0117 87.8606C90.9598 85.9135 93.6976 84.7032 96.6461 84.7032H143.242C149.192 84.7032 154.088 89.5972 154.088 95.5437C154.088 98.5432 152.877 101.227 150.929 103.227Z" fill="white"/>
<path d="M70.3213 175.216H58.5802C57.9484 175.216 57.4219 174.69 57.4219 174.058V102.753C57.4219 102.121 57.9484 101.595 58.5802 101.595H70.3213C70.9531 101.595 71.4796 102.121 71.4796 102.753V174.058C71.427 174.69 70.9531 175.216 70.3213 175.216Z" fill="white"/>
<path d="M182.467 108.647V168.217C182.467 172.058 179.308 175.216 175.464 175.216C171.621 175.216 168.462 172.058 168.462 168.217V108.647C168.462 105.753 170.252 103.279 172.727 102.174C173.569 101.806 174.464 101.648 175.464 101.648C177.413 101.648 179.15 102.437 180.414 103.7C181.572 104.858 182.362 106.437 182.467 108.173C182.467 108.331 182.467 108.489 182.467 108.647Z" fill="white"/>
<path d="M149.929 134.38H89.1172V137.958H149.929V134.38Z" fill="white"/>
<path d="M149.929 143.905H111.862V147.483H149.929V143.905Z" fill="white"/>
<path d="M149.876 153.693H97.3311V157.271H149.876V153.693Z" fill="white"/>
<path d="M149.876 163.271H97.3311V166.849H149.876V163.271Z" fill="white"/>
<path d="M104.387 143.905H100.807V147.483H104.387V143.905Z" fill="white"/>
<path d="M156.774 153.693H153.193V157.271H156.774V153.693Z" fill="white"/>
<path d="M121.34 54.7603H117.022V67.7583H121.34V54.7603Z" fill="white"/>
<path d="M119.181 58.0754C124.153 58.0754 128.184 54.0466 128.184 49.0768C128.184 44.107 124.153 40.0781 119.181 40.0781C114.209 40.0781 110.178 44.107 110.178 49.0768C110.178 54.0466 114.209 58.0754 119.181 58.0754Z" fill="white"/>
<path d="M172.57 102.174C160.618 74.8099 121.183 67.7584 121.183 67.7584V65.2324C144.665 66.127 164.619 81.23 172.57 102.174Z" fill="#D1D3D4"/>
<path d="M182.257 108.173C178.256 109.068 174.886 107.489 172.517 102.174C173.359 101.806 174.254 101.648 175.254 101.648C177.203 101.648 178.94 102.437 180.204 103.7C181.415 104.858 182.152 106.437 182.257 108.173Z" fill="#D1D3D4"/>
<path d="M101.754 102.437C105.563 102.437 108.651 99.3509 108.651 95.5436C108.651 91.7363 105.563 88.6499 101.754 88.6499C97.9445 88.6499 94.8564 91.7363 94.8564 95.5436C94.8564 99.3509 97.9445 102.437 101.754 102.437Z" fill="#6D6E71"/>
<path d="M137.767 102.437C141.577 102.437 144.665 99.3509 144.665 95.5436C144.665 91.7363 141.577 88.6499 137.767 88.6499C133.958 88.6499 130.87 91.7363 130.87 95.5436C130.87 99.3509 133.958 102.437 137.767 102.437Z" fill="#6D6E71"/>
<defs>
<linearGradient id="paint0_linear_658_14243" x1="119.695" y1="14.3662" x2="119.76" y2="239.165" gradientUnits="userSpaceOnUse">
<stop stop-color="#27AAE1"/>
<stop offset="0.16" stop-color="#26A6DE"/>
<stop offset="0.31" stop-color="#249AD4"/>
<stop offset="0.47" stop-color="#2087C4"/>
<stop offset="0.62" stop-color="#1B6BAE"/>
<stop offset="0.77" stop-color="#144791"/>
<stop offset="0.92" stop-color="#0B1C6E"/>
<stop offset="1" stop-color="#060259"/>
</linearGradient>
</defs>
</svg>
