<svg width="42" height="42" viewBox="0 0 42 42" fill="none" xmlns="http://www.w3.org/2000/svg">
<g clip-path="url(#clip0_87_11075)">
<path d="M9.30809 25.3809L7.84612 30.8386L2.50269 30.9516C0.905789 27.9897 0 24.6009 0 20.9997C0 17.5174 0.846891 14.2336 2.34806 11.342H2.34921L7.10637 12.2142L9.19029 16.9428C8.75413 18.2144 8.5164 19.5794 8.5164 20.9997C8.51657 22.5413 8.7958 24.0182 9.30809 25.3809Z" fill="#FBBB00"/>
<path d="M41.6333 17.0769C41.8745 18.3472 42.0002 19.6592 42.0002 21C42.0002 22.5034 41.8422 23.97 41.541 25.3846C40.5188 30.1985 37.8476 34.4019 34.1472 37.3765L34.1461 37.3754L28.1542 37.0696L27.3062 31.7758C29.7615 30.3358 31.6804 28.0823 32.6912 25.3846H21.4619V17.0769H32.855H41.6333Z" fill="#518EF8"/>
<path d="M34.145 37.3755L34.1462 37.3767C30.5474 40.2694 25.9758 42.0001 20.9993 42.0001C13.002 42.0001 6.0489 37.5302 2.50195 30.9521L9.30735 25.3813C11.0808 30.1144 15.6466 33.4837 20.9993 33.4837C23.3 33.4837 25.4554 32.8617 27.305 31.7759L34.145 37.3755Z" fill="#28B446"/>
<path d="M34.4038 4.83459L27.6007 10.4042C25.6865 9.20768 23.4238 8.51648 20.9996 8.51648C15.5257 8.51648 10.8746 12.0403 9.18997 16.9431L2.3488 11.3423H2.34766C5.84268 4.60384 12.8834 0 20.9996 0C26.095 0 30.7669 1.81502 34.4038 4.83459Z" fill="#F14336"/>
</g>
<defs>
<clipPath id="clip0_87_11075">
<rect width="42" height="42" fill="white"/>
</clipPath>
</defs>
</svg>
