<svg width="32" height="32" viewBox="0 0 32 32" fill="none" xmlns="http://www.w3.org/2000/svg">
<path fill-rule="evenodd" clip-rule="evenodd" d="M4 6.00003C4 6.00003 4 5.17161 4.58579 4.58582C4.58579 4.58582 5.17157 4.00003 6 4.00003H10C10 4.00003 10.8284 4.00003 11.4142 4.58582C11.4142 4.58582 12 5.17161 12 6.00003V26C12 26 12 26.8285 11.4142 27.4142C11.4142 27.4142 10.8284 28 10 28H6C6 28 5.17157 28 4.58579 27.4142C4.58579 27.4142 4 26.8285 4 26V6.00003ZM6 6.00003V26H10V6.00003H6Z" fill="white"/>
<path d="M5 11H11C11.5523 11 12 10.5523 12 10C12 9.44775 11.5523 9.00003 11 9.00003H5C4.44772 9.00003 4 9.44775 4 10C4 10.5523 4.44772 11 5 11Z" fill="white"/>
<path fill-rule="evenodd" clip-rule="evenodd" d="M10 6.00003C10 6.00003 10 5.17161 10.5858 4.58582C10.5858 4.58582 11.1716 4.00003 12 4.00003H16C16 4.00003 16.8284 4.00003 17.4142 4.58582C17.4142 4.58582 18 5.17161 18 6.00003V26C18 26 18 26.8285 17.4142 27.4142C17.4142 27.4142 16.8284 28 16 28H12C12 28 11.1716 28 10.5858 27.4142C10.5858 27.4142 10 26.8285 10 26V6.00003ZM12 6.00003V26H16V6.00003H12Z" fill="white"/>
<path d="M11 23H17C17.5523 23 18 22.5523 18 22C18 21.4478 17.5523 21 17 21H11C10.4477 21 10 21.4478 10 22C10 22.5523 10.4477 23 11 23Z" fill="white"/>
<path fill-rule="evenodd" clip-rule="evenodd" d="M16.382 7.20273C16.382 7.20273 16.1666 6.39915 16.5825 5.67864C16.5825 5.67864 16.9984 4.95812 17.802 4.74273L21.682 3.70273C21.682 3.70273 22.4856 3.48734 23.2061 3.90325C23.2061 3.90325 23.9266 4.31916 24.142 5.12273L29.342 24.5227C29.342 24.5227 29.5574 25.3263 29.1415 26.0468C29.1415 26.0468 28.7256 26.7673 27.922 26.9827L24.042 28.0227C24.042 28.0227 23.2384 28.2381 22.5179 27.8222C22.5179 27.8222 21.7974 27.4063 21.582 26.6027L16.382 7.20273ZM18.322 6.68273L23.522 26.0827L27.402 25.0427L22.202 5.64273L18.322 6.68273Z" fill="white"/>
<path d="M21.6601 23.3656L27.4601 21.8031C27.7162 21.7341 27.9344 21.5662 28.0667 21.3364C28.154 21.1846 28.2 21.0126 28.2 20.8376L28.1998 20.8182C28.1982 20.7369 28.1867 20.656 28.1656 20.5774C28.048 20.1409 27.6521 19.8376 27.2 19.8376L27.1914 19.8376C27.1064 19.8383 27.0219 19.8499 26.9399 19.872L21.1399 21.4345C20.7033 21.5521 20.4 21.948 20.4 22.4001L20.4 22.4086C20.4008 22.4936 20.4123 22.5781 20.4344 22.6602C20.552 23.0967 20.9479 23.4001 21.4 23.4001L21.4086 23.4C21.4935 23.3993 21.5781 23.3877 21.6601 23.3656Z" fill="white"/>
<path d="M18.5582 11.7661L24.3582 10.2161C24.6144 10.1477 24.8329 9.9802 24.9657 9.75061C25.0537 9.59845 25.1 9.42579 25.1 9.25003L25.0998 9.23269C25.0984 9.15133 25.0871 9.07046 25.0661 8.99185C24.9492 8.55435 24.5528 8.25003 24.1 8.25003L24.0934 8.25005C24.0084 8.25061 23.9239 8.262 23.8418 8.28394L18.0418 9.83394C17.6043 9.95085 17.3 10.3472 17.3 10.8L17.3 10.8066C17.3006 10.8916 17.312 10.9761 17.3339 11.0582C17.4508 11.4957 17.8471 11.8 18.3 11.8L18.3066 11.8C18.3915 11.7995 18.4761 11.7881 18.5582 11.7661Z" fill="white"/>
</svg>
