<svg width="29" height="21" viewBox="0 0 29 21" fill="none" xmlns="http://www.w3.org/2000/svg">
<path fill-rule="evenodd" clip-rule="evenodd" d="M0.331055 2.52777C0.331055 2.52777 0.331055 1.64001 0.957687 1.01226C0.957687 1.01226 1.58432 0.384521 2.47051 0.384521H26.5292C26.5292 0.384521 27.4154 0.384521 28.042 1.01227C28.042 1.01227 28.6686 1.64001 28.6686 2.52777V18.5532C28.6686 18.5532 28.6686 19.441 28.042 20.0688C28.042 20.0688 27.4154 20.6965 26.5292 20.6965H2.47051C2.47051 20.6965 1.58432 20.6965 0.957687 20.0688C0.957687 20.0688 0.331055 19.441 0.331055 18.5532V2.52777ZM2.46862 2.52777L2.46862 18.5532L2.47051 18.5551H26.5292L26.5304 18.5547L26.5311 18.5532V2.52777L26.5292 2.52588L2.47051 2.52588L2.46862 2.52777Z" fill="#50555C"/>
<path d="M5.43065 11.5499H23.5691C24.1256 11.5499 24.5768 11.0979 24.5768 10.5404C24.5768 9.98291 24.1256 9.53095 23.5691 9.53095H5.43065C4.87412 9.53095 4.42296 9.98291 4.42296 10.5404C4.42296 11.0979 4.87412 11.5499 5.43065 11.5499Z" fill="#50555C"/>
<path d="M5.43065 7.51199H23.5691C24.1256 7.51199 24.5768 7.06003 24.5768 6.50251C24.5768 5.94499 24.1256 5.49304 23.5691 5.49304H5.43065C4.87412 5.49304 4.42296 5.94499 4.42296 6.50251C4.42296 7.06003 4.87412 7.51199 5.43065 7.51199Z" fill="#50555C"/>
<path d="M4.42296 14.5783C4.42296 15.1359 4.87412 15.5878 5.43065 15.5878H6.43834C6.99488 15.5878 7.44604 15.1359 7.44604 14.5783C7.44604 14.0208 6.99488 13.5689 6.43834 13.5689H5.43065C4.87412 13.5689 4.42296 14.0208 4.42296 14.5783Z" fill="#50555C"/>
<path d="M10.4691 15.5878H18.5307C19.0872 15.5878 19.5383 15.1359 19.5383 14.5783C19.5383 14.0208 19.0872 13.5689 18.5307 13.5689H10.4691C9.91258 13.5689 9.46142 14.0208 9.46142 14.5783C9.46142 15.1359 9.91258 15.5878 10.4691 15.5878Z" fill="#50555C"/>
<path d="M21.5537 14.5783C21.5537 15.1359 22.0049 15.5878 22.5614 15.5878H23.5691C24.1256 15.5878 24.5768 15.1359 24.5768 14.5783C24.5768 14.0208 24.1256 13.5689 23.5691 13.5689H22.5614C22.0049 13.5689 21.5537 14.0208 21.5537 14.5783Z" fill="#50555C"/>
</svg>
