<svg width="268" height="43" viewBox="0 0 268 43" fill="none" xmlns="http://www.w3.org/2000/svg">
<g filter="url(#filter0_d_464_15396)">
<path d="M14.8965 2.19287H18.6538V22.3006H16.3055V22.3434L5.7593 8.78137V22.3006H2.00195V2.23566H5.07615L14.8965 14.6853V2.19287Z" fill="#12141A"/>
<path d="M48.9258 18.5359H38.465L36.7571 22.3008H32.6582L41.6246 2.23584H45.7662L54.7326 22.3008H50.591L48.9258 18.5359ZM43.7168 6.47129L40.0021 15.0278H47.4314L43.7168 6.47129Z" fill="#12141A"/>
<path d="M86.7984 22.3006H82.3152L76.4657 15.5838H72.8364V22.3006H69.0791V2.19287C72.2387 2.19287 75.441 2.23566 78.6006 2.23566C83.3399 2.27844 85.8164 5.40156 85.8164 8.90971C85.8164 11.6478 84.5782 14.4286 80.7354 15.1987L86.7984 22.0439V22.3006ZM72.8364 5.74382V12.1612H78.6006C80.9916 12.1612 82.0163 10.5354 82.0163 8.9525C82.0163 7.32677 80.9489 5.74382 78.6006 5.74382H72.8364Z" fill="#12141A"/>
<path d="M118.736 22.3006H114.253L108.403 15.5838H104.774V22.3006H101.017V2.19287C104.176 2.19287 107.378 2.23566 110.538 2.23566C115.277 2.27844 117.754 5.40156 117.754 8.90971C117.754 11.6478 116.516 14.4286 112.673 15.1987L118.736 22.0439V22.3006ZM104.774 5.74382V12.1612H110.538C112.929 12.1612 113.954 10.5354 113.954 8.9525C113.954 7.32677 112.886 5.74382 110.538 5.74382H104.774Z" fill="#12141A"/>
<path d="M147.087 18.5359H136.626L134.918 22.3008H130.819L139.786 2.23584H143.927L152.894 22.3008H148.752L147.087 18.5359ZM141.835 6.47129L138.121 15.0278H145.55L141.835 6.47129Z" fill="#FFF200"/>
<path d="M166.94 22.3008H170.698V9.12381H166.94V22.3008ZM166.94 2.23584V5.65843H170.698V2.23584H166.94Z" fill="#FFF200"/>
<path d="M192.901 5.65843H186.539V2.23584C192.303 2.23584 197.213 2.23584 203.02 2.23584V5.65843H196.701V22.3008H192.944V5.65843H192.901Z" fill="#12141A"/>
<path d="M232.865 22.3008H217.878C217.878 15.6267 217.878 8.90989 217.878 2.23584H232.865V5.91513H221.635V10.5356H232.48V14.0438H221.635V18.5787H232.865V22.3008Z" fill="#12141A"/>
<path d="M265.998 12.1185C266.084 17.2097 263.01 22.3435 255.965 22.3435C253.488 22.3435 250.542 22.3435 248.108 22.3435V2.2786C250.585 2.2786 253.531 2.2786 255.965 2.2786C262.882 2.23581 265.913 7.15579 265.998 12.1185ZM251.866 18.6642H256.007C260.576 18.6642 262.369 15.3272 262.284 12.0758C262.198 8.95265 260.362 5.82953 256.007 5.82953H251.866V18.6642Z" fill="#12141A"/>
<path d="M35.3484 37.6168L32.4023 33.0391H33.0855L35.6473 37.0606L38.2519 33.0391H38.935L35.9462 37.6168V40.6543H35.3484V37.6168Z" fill="#12141A"/>
<path d="M52.0859 36.8466C52.0859 38.8574 50.805 40.7826 48.2431 40.7826C45.6813 40.7826 44.4004 38.8574 44.4004 36.8466C44.4004 34.7931 45.6813 32.9106 48.2431 32.9106C50.805 32.9106 52.0859 34.7931 52.0859 36.8466ZM44.9981 36.8466C44.9981 38.5579 46.1083 40.2264 48.2431 40.2264C50.4207 40.2264 51.5308 38.5579 51.5308 36.8466C51.5308 35.0925 50.4634 33.4668 48.2431 33.4668C46.0229 33.4668 44.9981 35.0498 44.9981 36.8466Z" fill="#12141A"/>
<path d="M64.0841 33.0391V37.7879C64.0841 41.7667 58.2773 41.7667 58.2773 37.7879V33.0391H58.8324V37.7879C58.8324 41.0822 63.4864 41.0394 63.4864 37.7879V33.0391H64.0841Z" fill="#12141A"/>
<path d="M76.509 40.6543H75.7405L73.0932 37.7879H71.0011V40.6543H70.4033V33.0391C71.5134 33.0391 72.6236 33.0391 73.7337 33.0391C75.3989 33.0391 76.2101 34.237 76.2101 35.3921C76.2101 36.6328 75.3989 37.7023 73.7337 37.7023L76.509 40.6543ZM71.0438 37.2317H73.7337C75.0573 37.2317 75.6551 36.4617 75.6551 35.4349C75.6551 34.5364 75.0573 33.638 73.7764 33.638H71.0011V37.2317H71.0438Z" fill="#12141A"/>
<path d="M90.6417 33.0391V40.0982H94.9114V40.6543H90.0439V33.0391H90.6417Z" fill="#12141A"/>
<path d="M100.804 40.6543V33.0391H101.359V40.6543H100.804Z" fill="#12141A"/>
<path d="M108.403 36.6753H112.759V37.2314H108.403V40.6968H107.806V33.0815H112.929V33.6805H108.403V36.6753Z" fill="#12141A"/>
<path d="M119.59 36.547H124.03V37.0604H119.59V40.0552H124.372V40.6114H118.992V32.9961H124.244V33.5523H119.59V36.547Z" fill="#12141A"/>
<path d="M138.505 33.0391L143.629 39.3281V33.0391H144.184V40.6543H143.97L138.847 34.3653V40.6543H138.249V33.0391H138.505Z" fill="#12141A"/>
<path d="M156.694 40.6543L155.84 38.7719H151.314L150.503 40.6543H149.862L153.278 33.0391H153.919L157.334 40.6543H156.694ZM155.626 38.2585L153.577 33.638L151.528 38.2585H155.626Z" fill="#12141A"/>
<path d="M169.161 40.6543H168.393L165.746 37.7879H163.653V40.6543H163.056V33.0391C164.166 33.0391 165.276 33.0391 166.386 33.0391C168.051 33.0391 168.862 34.237 168.862 35.3921C168.862 36.6328 168.051 37.7023 166.386 37.7023L169.161 40.6543ZM163.696 37.2317H166.386C167.71 37.2317 168.307 36.4617 168.307 35.4349C168.307 34.5364 167.71 33.638 166.429 33.638H163.653V37.2317H163.696Z" fill="#12141A"/>
<path d="M180.988 40.6543H180.219L177.572 37.7879H175.48V40.6543H174.925V33.0391C176.035 33.0391 177.145 33.0391 178.255 33.0391C179.92 33.0391 180.732 34.237 180.732 35.3921C180.732 36.6328 179.92 37.7023 178.255 37.7023L180.988 40.6543ZM175.523 37.2317H178.212C179.536 37.2317 180.134 36.4617 180.134 35.4349C180.134 34.5364 179.536 33.638 178.298 33.638H175.523V37.2317Z" fill="#12141A"/>
<path d="M192.773 40.6543L191.919 38.7719H187.393L186.582 40.6543H185.941L189.357 33.0391H189.998L193.413 40.6543H192.773ZM191.706 38.2585L189.656 33.638L187.607 38.2585H191.706Z" fill="#12141A"/>
<path d="M199.05 40.6543V33.0391H199.605V40.6543H199.05Z" fill="#12141A"/>
<path d="M208.613 33.5949H205.881V33.0815H211.944V33.5949H209.211V40.6968H208.613V33.5949Z" fill="#12141A"/>
<path d="M218.391 36.547H222.831V37.0604H218.391V40.0552H223.173V40.6114H217.793V32.9961H223.045V33.5523H218.391V36.547Z" fill="#12141A"/>
<path d="M235.641 36.7611C235.684 38.6863 234.445 40.6543 231.798 40.6543C230.944 40.6543 230.09 40.6543 229.236 40.6543V33.0391C230.09 33.0391 230.944 33.0391 231.798 33.0391C234.36 33.0391 235.598 34.8787 235.641 36.7611ZM229.791 33.5952V40.0982H231.798C234.061 40.0982 235.086 38.3869 235.086 36.7611C235.043 35.1782 234.018 33.5952 231.798 33.5952H229.791Z" fill="#12141A"/>
</g>
<defs>
<filter id="filter0_d_464_15396" x="0.00195312" y="0.192871" width="267.998" height="42.5898" filterUnits="userSpaceOnUse" color-interpolation-filters="sRGB">
<feFlood flood-opacity="0" result="BackgroundImageFix"/>
<feColorMatrix in="SourceAlpha" type="matrix" values="0 0 0 0 0 0 0 0 0 0 0 0 0 0 0 0 0 0 127 0" result="hardAlpha"/>
<feOffset/>
<feGaussianBlur stdDeviation="1"/>
<feComposite in2="hardAlpha" operator="out"/>
<feColorMatrix type="matrix" values="0 0 0 0 0 0 0 0 0 0 0 0 0 0 0 0 0 0 0.25 0"/>
<feBlend mode="normal" in2="BackgroundImageFix" result="effect1_dropShadow_464_15396"/>
<feBlend mode="normal" in="SourceGraphic" in2="effect1_dropShadow_464_15396" result="shape"/>
</filter>
</defs>
</svg>
