<svg width="154" height="27" viewBox="0 0 154 27" fill="none" xmlns="http://www.w3.org/2000/svg">
<g filter="url(#filter0_d_641_14363)">
<path d="M9.3265 2.53711H11.4614V13.9621H10.1271V13.9864L4.13488 6.28061V13.9621H2V2.56142H3.74672L9.3265 9.63516V2.53711Z" fill="white"/>
<path d="M28.6615 11.8225H22.7178L21.7474 13.9617H19.4185L24.513 2.56104H26.8663L31.9608 13.9617H29.6076L28.6615 11.8225ZM25.7018 4.96756L23.5912 9.82924H27.8124L25.7018 4.96756Z" fill="white"/>
<path d="M50.1802 13.9621H47.6329L44.3093 10.1456H42.2472V13.9621H40.1123V2.53711C41.9075 2.53711 43.727 2.56142 45.5223 2.56142C48.2151 2.58573 49.6222 4.36024 49.6222 6.35353C49.6222 7.90927 48.9187 9.48931 46.7353 9.92686L50.1802 13.8162V13.9621ZM42.2472 4.55471V8.20097H45.5223C46.8808 8.20097 47.4631 7.27725 47.4631 6.37784C47.4631 5.45412 46.8566 4.55471 45.5223 4.55471H42.2472Z" fill="white"/>
<path d="M68.3267 13.9621H65.7794L62.4558 10.1456H60.3937V13.9621H58.2588V2.53711C60.054 2.53711 61.8735 2.56142 63.6688 2.56142C66.3616 2.58573 67.7687 4.36024 67.7687 6.35353C67.7687 7.90927 67.0652 9.48931 64.8818 9.92686L68.3267 13.8162V13.9621ZM60.3937 4.55471V8.20097H63.6688C65.0273 8.20097 65.6096 7.27725 65.6096 6.37784C65.6096 5.45412 65.0031 4.55471 63.6688 4.55471H60.3937Z" fill="white"/>
<path d="M84.4354 11.8225H78.4917L77.5213 13.9617H75.1924L80.287 2.56104H82.6402L87.7348 13.9617H85.3816L84.4354 11.8225ZM81.4514 4.96756L79.3408 9.82924H83.5621L81.4514 4.96756Z" fill="#FFF200"/>
<path d="M95.7158 13.9617H97.8507V6.47469H95.7158V13.9617ZM95.7158 2.56104V4.50571H97.8507V2.56104H95.7158Z" fill="#FFF200"/>
<path d="M110.466 4.50571H106.852V2.56104C110.127 2.56104 112.917 2.56104 116.216 2.56104V4.50571H112.625V13.9617H110.491V4.50571H110.466Z" fill="white"/>
<path d="M133.173 13.9617H124.658C124.658 10.1696 124.658 6.35314 124.658 2.56104H133.173V4.65156H126.793V7.27686H132.955V9.27015H126.793V11.8468H133.173V13.9617Z" fill="white"/>
<path d="M151.999 8.17654C152.048 11.0692 150.301 13.9862 146.298 13.9862C144.891 13.9862 143.217 13.9862 141.834 13.9862V2.58561C143.242 2.58561 144.915 2.58561 146.298 2.58561C150.228 2.5613 151.951 5.35676 151.999 8.17654ZM143.969 11.8957H146.323C148.918 11.8957 149.937 9.99966 149.889 8.15223C149.84 6.37771 148.797 4.6032 146.323 4.6032H143.969V11.8957Z" fill="white"/>
<path d="M20.9469 22.664L19.2729 20.063H19.6611L21.1167 22.348L22.5966 20.063H22.9847L21.2865 22.664V24.3899H20.9469V22.664Z" fill="white"/>
<path d="M30.4571 22.2261C30.4571 23.3686 29.7293 24.4625 28.2737 24.4625C26.8181 24.4625 26.0903 23.3686 26.0903 22.2261C26.0903 21.0593 26.8181 19.9897 28.2737 19.9897C29.7293 19.9897 30.4571 21.0593 30.4571 22.2261ZM26.43 22.2261C26.43 23.1984 27.0607 24.1465 28.2737 24.1465C29.511 24.1465 30.1417 23.1984 30.1417 22.2261C30.1417 21.2295 29.5352 20.3058 28.2737 20.3058C27.0122 20.3058 26.43 21.2052 26.43 22.2261Z" fill="white"/>
<path d="M37.274 20.063V22.7612C37.274 25.0219 33.9746 25.0219 33.9746 22.7612V20.063H34.29V22.7612C34.29 24.633 36.9343 24.6087 36.9343 22.7612V20.063H37.274Z" fill="white"/>
<path d="M44.3339 24.3899H43.8972L42.3931 22.7612H41.2044V24.3899H40.8647V20.063C41.4955 20.063 42.1263 20.063 42.757 20.063C43.7032 20.063 44.1641 20.7436 44.1641 21.3999C44.1641 22.1049 43.7032 22.7126 42.757 22.7126L44.3339 24.3899ZM41.2286 22.4452H42.757C43.5091 22.4452 43.8487 22.0077 43.8487 21.4243C43.8487 20.9138 43.5091 20.4033 42.7813 20.4033H41.2044V22.4452H41.2286Z" fill="white"/>
<path d="M52.3641 20.063V24.0739H54.79V24.3899H52.0244V20.063H52.3641Z" fill="white"/>
<path d="M58.1382 24.3899V20.063H58.4536V24.3899H58.1382Z" fill="white"/>
<path d="M62.4558 22.1288H64.9304V22.4448H62.4558V24.4138H62.1162V20.0869H65.0274V20.4272H62.4558V22.1288Z" fill="white"/>
<path d="M68.8123 22.0562H71.3353V22.3479H68.8123V24.0495H71.5294V24.3655H68.4727V20.0386H71.4566V20.3546H68.8123V22.0562Z" fill="white"/>
<path d="M79.5596 20.063L82.4708 23.6363V20.063H82.7862V24.3899H82.6649L79.7537 20.8165V24.3899H79.4141V20.063H79.5596Z" fill="white"/>
<path d="M89.8943 24.3899L89.4091 23.3203H86.8375L86.3766 24.3899H86.0127L87.9535 20.063H88.3174L90.2582 24.3899H89.8943ZM89.2878 23.0286L88.1233 20.4033L86.9588 23.0286H89.2878Z" fill="white"/>
<path d="M96.9775 24.3899H96.5408L95.0367 22.7612H93.8479V24.3899H93.5083V20.063C94.1391 20.063 94.7698 20.063 95.4006 20.063C96.3467 20.063 96.8076 20.7436 96.8076 21.3999C96.8076 22.1049 96.3467 22.7126 95.4006 22.7126L96.9775 24.3899ZM93.8722 22.4452H95.4006C96.1526 22.4452 96.4923 22.0077 96.4923 21.4243C96.4923 20.9138 96.1526 20.4033 95.4248 20.4033H93.8479V22.4452H93.8722Z" fill="white"/>
<path d="M103.697 24.3899H103.261L101.757 22.7612H100.568V24.3899H100.252V20.063C100.883 20.063 101.514 20.063 102.145 20.063C103.091 20.063 103.552 20.7436 103.552 21.3999C103.552 22.1049 103.091 22.7126 102.145 22.7126L103.697 24.3899ZM100.592 22.4452H102.12C102.873 22.4452 103.212 22.0077 103.212 21.4243C103.212 20.9138 102.873 20.4033 102.169 20.4033H100.592V22.4452Z" fill="white"/>
<path d="M110.393 24.3899L109.908 23.3203H107.337L106.876 24.3899H106.512L108.453 20.063H108.816L110.757 24.3899H110.393ZM109.787 23.0286L108.622 20.4033L107.458 23.0286H109.787Z" fill="white"/>
<path d="M113.96 24.3899V20.063H114.275V24.3899H113.96Z" fill="white"/>
<path d="M119.394 20.3786H117.841V20.0869H121.286V20.3786H119.734V24.4138H119.394V20.3786Z" fill="white"/>
<path d="M124.949 22.0562H127.472V22.3479H124.949V24.0495H127.666V24.3655H124.609V20.0386H127.593V20.3546H124.949V22.0562Z" fill="white"/>
<path d="M134.75 22.1778C134.775 23.2717 134.071 24.3899 132.567 24.3899C132.082 24.3899 131.597 24.3899 131.111 24.3899V20.063C131.597 20.063 132.082 20.063 132.567 20.063C134.023 20.063 134.726 21.1083 134.75 22.1778ZM131.427 20.379V24.0739H132.567C133.853 24.0739 134.435 23.1015 134.435 22.1778C134.411 21.2784 133.828 20.379 132.567 20.379H131.427Z" fill="white"/>
</g>
<defs>
<filter id="filter0_d_641_14363" x="0" y="0.537109" width="154" height="25.9253" filterUnits="userSpaceOnUse" color-interpolation-filters="sRGB">
<feFlood flood-opacity="0" result="BackgroundImageFix"/>
<feColorMatrix in="SourceAlpha" type="matrix" values="0 0 0 0 0 0 0 0 0 0 0 0 0 0 0 0 0 0 127 0" result="hardAlpha"/>
<feOffset/>
<feGaussianBlur stdDeviation="1"/>
<feComposite in2="hardAlpha" operator="out"/>
<feColorMatrix type="matrix" values="0 0 0 0 0 0 0 0 0 0 0 0 0 0 0 0 0 0 0.25 0"/>
<feBlend mode="normal" in2="BackgroundImageFix" result="effect1_dropShadow_641_14363"/>
<feBlend mode="normal" in="SourceGraphic" in2="effect1_dropShadow_641_14363" result="shape"/>
</filter>
</defs>
</svg>
