<svg width="295" height="177" viewBox="0 0 295 177" fill="none" xmlns="http://www.w3.org/2000/svg">
<path d="M14.36 134.024H18.5444V156.417H15.9292V156.465L4.18438 141.362V156.417H0V134.072H3.42358L14.36 147.937V134.024Z" fill="white"/>
<path d="M52.2571 152.225H40.6074L38.7054 156.418H34.1406L44.1261 134.072H48.7384L58.7238 156.418H54.1115L52.2571 152.225ZM46.456 138.789L42.3192 148.318H50.5928L46.456 138.789Z" fill="white"/>
<path d="M94.4333 156.417H89.4406L82.9263 148.937H78.8846V156.417H74.7002V134.024C78.2189 134.024 81.7851 134.072 85.3038 134.072C90.5818 134.12 93.3397 137.598 93.3397 141.505C93.3397 144.554 91.9607 147.651 87.6813 148.508L94.4333 156.132V156.417ZM78.8846 137.979V145.126H85.3038C87.9666 145.126 89.1078 143.315 89.1078 141.552C89.1078 139.742 87.919 137.979 85.3038 137.979H78.8846Z" fill="white"/>
<path d="M130.001 156.417H125.008L118.494 148.937H114.452V156.417H110.268V134.024C113.786 134.024 117.352 134.072 120.871 134.072C126.149 134.12 128.907 137.598 128.907 141.505C128.907 144.554 127.528 147.651 123.249 148.508L130.001 156.132V156.417ZM114.452 137.979V145.126H120.871C123.534 145.126 124.675 143.315 124.675 141.552C124.675 139.742 123.486 137.979 120.871 137.979H114.452Z" fill="white"/>
<path d="M161.574 152.225H149.925L148.023 156.418H143.458L153.443 134.072H158.056L168.041 156.418H163.429L161.574 152.225ZM155.726 138.789L151.589 148.318H159.863L155.726 138.789Z" fill="#FFF200"/>
<path d="M183.685 156.418H187.869V141.743H183.685V156.418ZM183.685 134.072V137.884H187.869V134.072H183.685Z" fill="#FFF200"/>
<path d="M212.595 137.884H205.51V134.072C211.929 134.072 217.397 134.072 223.864 134.072V137.884H216.827V156.418H212.642V137.884H212.595Z" fill="white"/>
<path d="M257.101 156.418H240.411C240.411 148.985 240.411 141.505 240.411 134.072H257.101V138.17H244.596V143.315H256.673V147.222H244.596V152.273H257.101V156.418Z" fill="white"/>
<path d="M294 145.078C294.096 150.748 290.672 156.465 282.826 156.465C280.068 156.465 276.787 156.465 274.077 156.465V134.12C276.835 134.12 280.116 134.12 282.826 134.12C290.529 134.072 293.905 139.551 294 145.078ZM278.262 152.368H282.874C287.962 152.368 289.959 148.652 289.864 145.031C289.769 141.553 287.724 138.074 282.874 138.074H278.262V152.368Z" fill="white"/>
<path d="M37.1364 173.474L33.8555 168.376H34.6163L37.4693 172.855L40.3698 168.376H41.1306L37.8021 173.474V176.857H37.1364V173.474Z" fill="white"/>
<path d="M55.7757 172.617C55.7757 174.856 54.3493 177 51.4963 177C48.6433 177 47.2168 174.856 47.2168 172.617C47.2168 170.33 48.6433 168.233 51.4963 168.233C54.3493 168.233 55.7757 170.33 55.7757 172.617ZM47.8825 172.617C47.8825 174.522 49.1188 176.381 51.4963 176.381C53.9213 176.381 55.1576 174.522 55.1576 172.617C55.1576 170.663 53.9689 168.853 51.4963 168.853C49.0237 168.853 47.8825 170.616 47.8825 172.617Z" fill="white"/>
<path d="M69.1377 168.376V173.665C69.1377 178.096 62.6709 178.096 62.6709 173.665V168.376H63.289V173.665C63.289 177.334 68.472 177.286 68.472 173.665V168.376H69.1377Z" fill="white"/>
<path d="M82.9744 176.857H82.1185L79.1704 173.665H76.8405V176.857H76.1748V168.376C77.4111 168.376 78.6474 168.376 79.8837 168.376C81.7381 168.376 82.6416 169.711 82.6416 170.997C82.6416 172.379 81.7381 173.57 79.8837 173.57L82.9744 176.857ZM76.8881 173.046H79.8837C81.3577 173.046 82.0234 172.188 82.0234 171.045C82.0234 170.044 81.3577 169.043 79.9312 169.043H76.8405V173.046H76.8881Z" fill="white"/>
<path d="M98.7136 168.376V176.238H103.469V176.857H98.0479V168.376H98.7136Z" fill="white"/>
<path d="M110.03 176.857V168.376H110.648V176.857H110.03Z" fill="white"/>
<path d="M118.494 172.426H123.344V173.045H118.494V176.905H117.828V168.424H123.534V169.091H118.494V172.426Z" fill="white"/>
<path d="M130.952 172.283H135.897V172.855H130.952V176.19H136.277V176.809H130.286V168.329H136.135V168.948H130.952V172.283Z" fill="white"/>
<path d="M152.017 168.376L157.723 175.38V168.376H158.341V176.857H158.103L152.397 169.853V176.857H151.731V168.376H152.017Z" fill="white"/>
<path d="M172.273 176.857L171.322 174.761H166.282L165.378 176.857H164.665L168.469 168.376H169.182L172.986 176.857H172.273ZM171.084 174.189L168.802 169.043L166.519 174.189H171.084Z" fill="white"/>
<path d="M186.157 176.857H185.301L182.353 173.665H180.023V176.857H179.357V168.376C180.594 168.376 181.83 168.376 183.066 168.376C184.921 168.376 185.824 169.711 185.824 170.997C185.824 172.379 184.921 173.57 183.066 173.57L186.157 176.857ZM180.071 173.046H183.066C184.54 173.046 185.206 172.188 185.206 171.045C185.206 170.044 184.54 169.043 183.114 169.043H180.023V173.046H180.071Z" fill="white"/>
<path d="M199.328 176.857H198.472L195.524 173.665H193.194V176.857H192.576V168.376C193.812 168.376 195.049 168.376 196.285 168.376C198.139 168.376 199.043 169.711 199.043 170.997C199.043 172.379 198.139 173.57 196.285 173.57L199.328 176.857ZM193.242 173.046H196.238C197.712 173.046 198.377 172.188 198.377 171.045C198.377 170.044 197.712 169.043 196.333 169.043H193.242V173.046Z" fill="white"/>
<path d="M212.453 176.857L211.502 174.761H206.461L205.558 176.857H204.845L208.649 168.376H209.362L213.166 176.857H212.453ZM211.264 174.189L208.982 169.043L206.699 174.189H211.264Z" fill="white"/>
<path d="M219.442 176.857V168.376H220.061V176.857H219.442Z" fill="white"/>
<path d="M230.093 168.996H227.05V168.424H233.802V168.996H230.759V176.905H230.093V168.996Z" fill="white"/>
<path d="M240.982 172.283H245.927V172.855H240.982V176.19H246.308V176.809H240.316V168.329H246.165V168.948H240.982V172.283Z" fill="white"/>
<path d="M260.192 172.522C260.24 174.666 258.861 176.857 255.913 176.857C254.962 176.857 254.011 176.857 253.06 176.857V168.376C254.011 168.376 254.962 168.376 255.913 168.376C258.766 168.376 260.144 170.425 260.192 172.522ZM253.678 168.996V176.238H255.913C258.433 176.238 259.574 174.332 259.574 172.522C259.526 170.759 258.385 168.996 255.913 168.996H253.678Z" fill="white"/>
<path d="M194.669 56.2205C187.489 37.2579 169.515 23.5839 148.26 22.8216C147.594 22.7739 146.976 22.7739 146.311 22.7739C145.645 22.7739 145.027 22.7739 144.361 22.8216C123.249 23.5839 105.37 37.0673 98.0952 55.887C95.8603 61.6996 94.624 67.9887 94.624 74.6113H197.997C197.997 68.084 196.856 61.9379 194.669 56.2205ZM174.983 57.1734C173.224 58.9362 170.751 60.0321 168.041 60.0321H125.959C120.586 60.0321 116.164 55.6011 116.164 50.2173C116.164 47.5015 117.258 45.0716 119.065 43.2611C120.824 41.4983 123.297 40.4025 125.959 40.4025H168.041C173.414 40.4025 177.836 44.8334 177.836 50.2173C177.836 52.933 176.742 55.3629 174.983 57.1734Z" fill="white"/>
<path d="M102.185 122.351H91.5813C91.0107 122.351 90.5352 121.875 90.5352 121.303V56.7445C90.5352 56.1727 91.0107 55.6963 91.5813 55.6963H102.185C102.755 55.6963 103.231 56.1727 103.231 56.7445V121.303C103.183 121.875 102.755 122.351 102.185 122.351Z" fill="white"/>
<path d="M203.466 62.0809V116.015C203.466 119.493 200.613 122.351 197.142 122.351C193.67 122.351 190.817 119.493 190.817 116.015V62.0809C190.817 59.4604 192.434 57.2211 194.669 56.2206C195.43 55.8871 196.238 55.7441 197.142 55.7441C198.901 55.7441 200.47 56.4588 201.611 57.6023C202.657 58.6505 203.371 60.0798 203.466 61.6521C203.466 61.795 203.466 61.938 203.466 62.0809Z" fill="white"/>
<path d="M174.08 85.3794H119.16V88.6192H174.08V85.3794Z" fill="white"/>
<path d="M174.08 94.0029H139.701V97.2428H174.08V94.0029Z" fill="white"/>
<path d="M174.033 102.865H126.578V106.105H174.033V102.865Z" fill="white"/>
<path d="M174.033 111.536H126.578V114.776H174.033V111.536Z" fill="white"/>
<path d="M132.949 94.0029H129.716V97.2428H132.949V94.0029Z" fill="white"/>
<path d="M180.262 102.865H177.028V106.105H180.262V102.865Z" fill="white"/>
<path d="M148.26 13.293H144.361V25.0612H148.26V13.293Z" fill="white"/>
<path d="M146.311 16.2945C150.801 16.2945 154.442 12.6468 154.442 8.14724C154.442 3.64764 150.801 0 146.311 0C141.82 0 138.18 3.64764 138.18 8.14724C138.18 12.6468 141.82 16.2945 146.311 16.2945Z" fill="white"/>
<path d="M194.526 56.2205C183.732 31.4453 148.117 25.0609 148.117 25.0609V22.7739C169.324 23.5839 187.346 37.2579 194.526 56.2205Z" fill="#D1D3D4"/>
<path d="M203.275 61.6521C199.661 62.462 196.618 61.0327 194.479 56.2206C195.239 55.8871 196.048 55.7441 196.951 55.7441C198.71 55.7441 200.28 56.4588 201.421 57.6023C202.514 58.6505 203.18 60.0798 203.275 61.6521Z" fill="#D1D3D4"/>
<path d="M130.572 56.459C134.012 56.459 136.801 53.6646 136.801 50.2175C136.801 46.7705 134.012 43.9761 130.572 43.9761C127.132 43.9761 124.343 46.7705 124.343 50.2175C124.343 53.6646 127.132 56.459 130.572 56.459Z" fill="#6D6E71"/>
<path d="M163.096 56.459C166.536 56.459 169.325 53.6646 169.325 50.2175C169.325 46.7705 166.536 43.9761 163.096 43.9761C159.656 43.9761 156.867 46.7705 156.867 50.2175C156.867 53.6646 159.656 56.459 163.096 56.459Z" fill="#6D6E71"/>
</svg>
